<mxfile host="app.diagrams.net" modified="2023-02-16T06:54:32.900Z" agent="5.0 (Windows NT 10.0; Win64; x64) AppleWebKit/537.36 (KHTML, like Gecko) Chrome/110.0.0.0 Safari/537.36" etag="4-2uBdOtnRqbraIjkxKh" version="20.8.5" type="github">
  <diagram id="kgpKYQtTHZ0yAKxKKP6v" name="Page-1">
    <mxGraphModel dx="989" dy="527" grid="1" gridSize="10" guides="1" tooltips="1" connect="1" arrows="1" fold="1" page="1" pageScale="1" pageWidth="850" pageHeight="1100" math="0" shadow="0">
      <root>
        <mxCell id="0" />
        <mxCell id="1" parent="0" />
        <mxCell id="LrH0lwgk2xYIO5YEgYWv-5" value="" style="whiteSpace=wrap;html=1;align=center;" vertex="1" parent="1">
          <mxGeometry x="520" y="340" width="140" height="200" as="geometry" />
        </mxCell>
        <mxCell id="LrH0lwgk2xYIO5YEgYWv-6" value="" style="html=1;rounded=1;curved=0;sourcePerimeterSpacing=0;targetPerimeterSpacing=0;startSize=6;endSize=6;noEdgeStyle=1;orthogonal=1;exitX=0.5;exitY=0;exitDx=0;exitDy=0;entryX=1;entryY=0.5;entryDx=0;entryDy=0;" edge="1" parent="1" source="LrH0lwgk2xYIO5YEgYWv-5" target="LrH0lwgk2xYIO5YEgYWv-57">
          <mxGeometry relative="1" as="geometry">
            <mxPoint x="385" y="259.9999999999999" as="sourcePoint" />
            <mxPoint x="520" y="240" as="targetPoint" />
            <Array as="points">
              <mxPoint x="590" y="220" />
            </Array>
          </mxGeometry>
        </mxCell>
        <mxCell id="LrH0lwgk2xYIO5YEgYWv-75" value="选择消息队列" style="edgeLabel;html=1;align=center;verticalAlign=middle;resizable=0;points=[];" vertex="1" connectable="0" parent="LrH0lwgk2xYIO5YEgYWv-6">
          <mxGeometry x="0.1829" y="-3" relative="1" as="geometry">
            <mxPoint as="offset" />
          </mxGeometry>
        </mxCell>
        <mxCell id="LrH0lwgk2xYIO5YEgYWv-4" value="" style="html=1;rounded=1;curved=0;sourcePerimeterSpacing=0;targetPerimeterSpacing=0;startSize=6;endSize=6;noEdgeStyle=1;orthogonal=1;exitX=0.5;exitY=0;exitDx=0;exitDy=0;entryX=0;entryY=0.5;entryDx=0;entryDy=0;" edge="1" parent="1" source="LrH0lwgk2xYIO5YEgYWv-46" target="LrH0lwgk2xYIO5YEgYWv-57">
          <mxGeometry relative="1" as="geometry">
            <mxPoint x="270" y="259.9999999999999" as="sourcePoint" />
            <mxPoint x="180" y="384.9999999999999" as="targetPoint" />
            <Array as="points">
              <mxPoint x="110" y="220" />
            </Array>
          </mxGeometry>
        </mxCell>
        <mxCell id="LrH0lwgk2xYIO5YEgYWv-76" value="选择消息队列" style="edgeLabel;html=1;align=center;verticalAlign=middle;resizable=0;points=[];" vertex="1" connectable="0" parent="LrH0lwgk2xYIO5YEgYWv-4">
          <mxGeometry x="0.2839" y="-2" relative="1" as="geometry">
            <mxPoint as="offset" />
          </mxGeometry>
        </mxCell>
        <mxCell id="LrH0lwgk2xYIO5YEgYWv-7" value="End" style="whiteSpace=wrap;html=1;" vertex="1" parent="1">
          <mxGeometry x="280" y="320" width="160" height="260" as="geometry" />
        </mxCell>
        <mxCell id="LrH0lwgk2xYIO5YEgYWv-40" value="" style="ellipse;whiteSpace=wrap;html=1;" vertex="1" parent="1">
          <mxGeometry x="290" y="360" width="140" height="105" as="geometry" />
        </mxCell>
        <mxCell id="LrH0lwgk2xYIO5YEgYWv-41" value="" style="ellipse;whiteSpace=wrap;html=1;" vertex="1" parent="1">
          <mxGeometry x="290" y="470" width="140" height="100" as="geometry" />
        </mxCell>
        <mxCell id="LrH0lwgk2xYIO5YEgYWv-42" value="comsumer1" style="rounded=1;whiteSpace=wrap;html=1;fillColor=#e1d5e7;strokeColor=#9673a6;" vertex="1" parent="1">
          <mxGeometry x="530" y="390" width="120" height="60" as="geometry" />
        </mxCell>
        <mxCell id="LrH0lwgk2xYIO5YEgYWv-43" value="comsumer1" style="rounded=1;whiteSpace=wrap;html=1;fillColor=#e1d5e7;strokeColor=#9673a6;" vertex="1" parent="1">
          <mxGeometry x="530" y="460" width="120" height="60" as="geometry" />
        </mxCell>
        <mxCell id="LrH0lwgk2xYIO5YEgYWv-44" value="消费者-group" style="rounded=0;whiteSpace=wrap;html=1;" vertex="1" parent="1">
          <mxGeometry x="540" y="360" width="100" height="20" as="geometry" />
        </mxCell>
        <mxCell id="LrH0lwgk2xYIO5YEgYWv-46" value="" style="whiteSpace=wrap;html=1;align=center;" vertex="1" parent="1">
          <mxGeometry x="40" y="350" width="140" height="200" as="geometry" />
        </mxCell>
        <mxCell id="LrH0lwgk2xYIO5YEgYWv-47" value="producer1" style="rounded=1;whiteSpace=wrap;html=1;fillColor=#dae8fc;strokeColor=#6c8ebf;" vertex="1" parent="1">
          <mxGeometry x="50" y="400" width="120" height="60" as="geometry" />
        </mxCell>
        <mxCell id="LrH0lwgk2xYIO5YEgYWv-48" value="producer2" style="rounded=1;whiteSpace=wrap;html=1;fillColor=#dae8fc;strokeColor=#6c8ebf;" vertex="1" parent="1">
          <mxGeometry x="50" y="470" width="120" height="60" as="geometry" />
        </mxCell>
        <mxCell id="LrH0lwgk2xYIO5YEgYWv-49" value="生产者-group" style="rounded=0;whiteSpace=wrap;html=1;" vertex="1" parent="1">
          <mxGeometry x="60" y="370" width="100" height="20" as="geometry" />
        </mxCell>
        <mxCell id="LrH0lwgk2xYIO5YEgYWv-51" value="Topic1:queue1" style="rounded=0;whiteSpace=wrap;html=1;fillColor=#d5e8d4;strokeColor=#82b366;" vertex="1" parent="1">
          <mxGeometry x="320" y="400" width="80" height="20" as="geometry" />
        </mxCell>
        <mxCell id="LrH0lwgk2xYIO5YEgYWv-52" value="Topic1:queue2" style="rounded=0;whiteSpace=wrap;html=1;fillColor=#d5e8d4;strokeColor=#82b366;" vertex="1" parent="1">
          <mxGeometry x="320" y="430" width="80" height="20" as="geometry" />
        </mxCell>
        <mxCell id="LrH0lwgk2xYIO5YEgYWv-53" value="Topic1:queue1" style="rounded=0;whiteSpace=wrap;html=1;fillColor=#d5e8d4;strokeColor=#82b366;" vertex="1" parent="1">
          <mxGeometry x="320" y="510" width="80" height="20" as="geometry" />
        </mxCell>
        <mxCell id="LrH0lwgk2xYIO5YEgYWv-54" value="Topic1:queue2" style="rounded=0;whiteSpace=wrap;html=1;fillColor=#d5e8d4;strokeColor=#82b366;" vertex="1" parent="1">
          <mxGeometry x="320" y="540" width="80" height="20" as="geometry" />
        </mxCell>
        <mxCell id="LrH0lwgk2xYIO5YEgYWv-55" value="" style="html=1;rounded=1;curved=0;sourcePerimeterSpacing=0;targetPerimeterSpacing=0;startSize=6;endSize=6;noEdgeStyle=1;orthogonal=1;entryX=0;entryY=0.5;entryDx=0;entryDy=0;exitX=1;exitY=0.5;exitDx=0;exitDy=0;" edge="1" parent="1" source="LrH0lwgk2xYIO5YEgYWv-46" target="LrH0lwgk2xYIO5YEgYWv-41">
          <mxGeometry relative="1" as="geometry">
            <mxPoint x="190" y="434.9999999999999" as="sourcePoint" />
            <mxPoint x="305" y="414.9999999999999" as="targetPoint" />
          </mxGeometry>
        </mxCell>
        <mxCell id="LrH0lwgk2xYIO5YEgYWv-56" value="Broker" style="rounded=0;whiteSpace=wrap;html=1;" vertex="1" parent="1">
          <mxGeometry x="315" y="330" width="80" height="20" as="geometry" />
        </mxCell>
        <mxCell id="LrH0lwgk2xYIO5YEgYWv-57" value="" style="rounded=0;whiteSpace=wrap;html=1;" vertex="1" parent="1">
          <mxGeometry x="295" y="170" width="130" height="100" as="geometry" />
        </mxCell>
        <mxCell id="LrH0lwgk2xYIO5YEgYWv-58" value="NameServer1" style="rounded=0;whiteSpace=wrap;html=1;fillColor=#ffe6cc;strokeColor=#d79b00;" vertex="1" parent="1">
          <mxGeometry x="320" y="210" width="80" height="20" as="geometry" />
        </mxCell>
        <mxCell id="LrH0lwgk2xYIO5YEgYWv-59" value="NameServer" style="rounded=0;whiteSpace=wrap;html=1;" vertex="1" parent="1">
          <mxGeometry x="320" y="180" width="80" height="20" as="geometry" />
        </mxCell>
        <mxCell id="LrH0lwgk2xYIO5YEgYWv-60" value="NameServer2" style="rounded=0;whiteSpace=wrap;html=1;fillColor=#ffe6cc;strokeColor=#d79b00;" vertex="1" parent="1">
          <mxGeometry x="320" y="240" width="80" height="20" as="geometry" />
        </mxCell>
        <mxCell id="LrH0lwgk2xYIO5YEgYWv-8" value="" style="html=1;rounded=1;curved=0;sourcePerimeterSpacing=0;targetPerimeterSpacing=0;startSize=6;endSize=6;noEdgeStyle=1;orthogonal=1;entryX=0;entryY=0.5;entryDx=0;entryDy=0;exitX=1;exitY=0.5;exitDx=0;exitDy=0;shadow=0;" edge="1" parent="1" source="LrH0lwgk2xYIO5YEgYWv-46" target="LrH0lwgk2xYIO5YEgYWv-40">
          <mxGeometry relative="1" as="geometry">
            <mxPoint x="180" y="424.9999999999999" as="sourcePoint" />
          </mxGeometry>
        </mxCell>
        <mxCell id="LrH0lwgk2xYIO5YEgYWv-63" value="Broker2" style="rounded=0;whiteSpace=wrap;html=1;" vertex="1" parent="1">
          <mxGeometry x="325" y="480" width="70" height="20" as="geometry" />
        </mxCell>
        <mxCell id="LrH0lwgk2xYIO5YEgYWv-64" value="Broker1" style="rounded=0;whiteSpace=wrap;html=1;" vertex="1" parent="1">
          <mxGeometry x="325" y="370" width="70" height="20" as="geometry" />
        </mxCell>
        <mxCell id="LrH0lwgk2xYIO5YEgYWv-71" value="" style="edgeStyle=none;orthogonalLoop=1;jettySize=auto;html=1;rounded=0;shadow=0;exitX=1;exitY=0.75;exitDx=0;exitDy=0;entryX=0;entryY=0.5;entryDx=0;entryDy=0;" edge="1" parent="1" source="LrH0lwgk2xYIO5YEgYWv-52" target="LrH0lwgk2xYIO5YEgYWv-43">
          <mxGeometry width="100" relative="1" as="geometry">
            <mxPoint x="420" y="470" as="sourcePoint" />
            <mxPoint x="520" y="470" as="targetPoint" />
            <Array as="points" />
          </mxGeometry>
        </mxCell>
        <mxCell id="LrH0lwgk2xYIO5YEgYWv-72" value="" style="edgeStyle=none;orthogonalLoop=1;jettySize=auto;html=1;rounded=0;shadow=0;exitX=1;exitY=0.5;exitDx=0;exitDy=0;entryX=0;entryY=0.5;entryDx=0;entryDy=0;" edge="1" parent="1" source="LrH0lwgk2xYIO5YEgYWv-51" target="LrH0lwgk2xYIO5YEgYWv-42">
          <mxGeometry width="100" relative="1" as="geometry">
            <mxPoint x="400" y="389.9999999999999" as="sourcePoint" />
            <mxPoint x="529.9999999999998" y="454.9999999999999" as="targetPoint" />
            <Array as="points" />
          </mxGeometry>
        </mxCell>
        <mxCell id="LrH0lwgk2xYIO5YEgYWv-73" value="" style="edgeStyle=none;orthogonalLoop=1;jettySize=auto;html=1;rounded=0;shadow=0;exitX=1;exitY=0.5;exitDx=0;exitDy=0;entryX=0;entryY=0.5;entryDx=0;entryDy=0;" edge="1" parent="1" source="LrH0lwgk2xYIO5YEgYWv-53" target="LrH0lwgk2xYIO5YEgYWv-42">
          <mxGeometry width="100" relative="1" as="geometry">
            <mxPoint x="420" y="444.9999999999999" as="sourcePoint" />
            <mxPoint x="549.9999999999998" y="509.9999999999999" as="targetPoint" />
            <Array as="points" />
          </mxGeometry>
        </mxCell>
        <mxCell id="LrH0lwgk2xYIO5YEgYWv-74" value="" style="edgeStyle=none;orthogonalLoop=1;jettySize=auto;html=1;rounded=0;shadow=0;exitX=1;exitY=0.5;exitDx=0;exitDy=0;entryX=0;entryY=0.5;entryDx=0;entryDy=0;" edge="1" parent="1" source="LrH0lwgk2xYIO5YEgYWv-54" target="LrH0lwgk2xYIO5YEgYWv-43">
          <mxGeometry width="100" relative="1" as="geometry">
            <mxPoint x="410" y="510" as="sourcePoint" />
            <mxPoint x="539.9999999999998" y="429.9999999999999" as="targetPoint" />
            <Array as="points" />
          </mxGeometry>
        </mxCell>
        <mxCell id="LrH0lwgk2xYIO5YEgYWv-77" value="" style="shape=flexArrow;endArrow=classic;startArrow=classic;html=1;rounded=0;shadow=0;exitX=0.5;exitY=0;exitDx=0;exitDy=0;" edge="1" parent="1" source="LrH0lwgk2xYIO5YEgYWv-7">
          <mxGeometry width="100" height="100" relative="1" as="geometry">
            <mxPoint x="260" y="370" as="sourcePoint" />
            <mxPoint x="360" y="270" as="targetPoint" />
          </mxGeometry>
        </mxCell>
        <mxCell id="LrH0lwgk2xYIO5YEgYWv-78" value="注册&lt;br&gt;心跳" style="text;html=1;align=center;verticalAlign=middle;resizable=0;points=[];autosize=1;strokeColor=none;fillColor=none;" vertex="1" parent="1">
          <mxGeometry x="370" y="270" width="50" height="40" as="geometry" />
        </mxCell>
        <mxCell id="LrH0lwgk2xYIO5YEgYWv-80" value="发送消息" style="text;html=1;align=center;verticalAlign=middle;resizable=0;points=[];autosize=1;strokeColor=none;fillColor=none;" vertex="1" parent="1">
          <mxGeometry x="190" y="440" width="70" height="30" as="geometry" />
        </mxCell>
        <mxCell id="LrH0lwgk2xYIO5YEgYWv-81" value="消费消息" style="text;html=1;align=center;verticalAlign=middle;resizable=0;points=[];autosize=1;strokeColor=none;fillColor=none;" vertex="1" parent="1">
          <mxGeometry x="440" y="425" width="70" height="30" as="geometry" />
        </mxCell>
      </root>
    </mxGraphModel>
  </diagram>
</mxfile>
